# AST/ASF file generated using VICON BodyLanguage
# -----------------------------------------------
:version 1.10
:name VICON
:units
  mass 1.0
  length 0.45
  angle deg
:documentation
   .ast/.asf automatically generated from VICON data using
   VICON BodyBuilder and BodyLanguage model FoxedUp or BRILLIANT.MOD
:root
   order TX TY TZ RX RY RZ
   axis XYZ
   position 0 0 0  
   orientation 0 0 0 
:bonedata
  begin
     id 1 
     name lhipjoint
     direction 0.650112 -0.723553 0.232005 
     length 2.45805 
     axis 0 0 0  XYZ
  end
  begin
     id 2 
     name lfemur
     direction 0.34202 -0.939693 0  
     length 7.00073  
     axis 0 0 20  XYZ
    dof rx ry rz
    limits (-160.0 20.0)
           (-70.0 70.0)
           (-60.0 70.0)
  end
  begin
     id 3 
     name ltibia
     direction 0.34202 -0.939693 0   
     length 7.8748   
     axis 0 0 20   XYZ
    dof rx
    limits (-10.0 170.0)
  end
  begin
     id 4 
     name lfoot
     direction 0.0542825 -0.14914 0.987325   
     length 1.75978   
     axis -90 7.62852e-016 20   XYZ
    dof rx rz
    limits (-45.0 90.0)
           (-70.0 20.0)
  end
  begin
     id 5 
     name ltoes
     direction 1.53509e-011 -4.21906e-011 1   
     length 0.893912   
     axis -90 7.62852e-016 20   XYZ
    dof rx
    limits (-90.0 20.0)
  end
  begin
     id 6 
     name rhipjoint
     direction -0.637897 -0.733345 0.235145   
     length 2.42522  
     axis 0 0 0  XYZ 
  end
  begin
     id 7 
     name rfemur
     direction -0.34202 -0.939693 0   
     length 7.02549   
     axis 0 0 -20   XYZ
    dof rx ry rz
    limits (-160.0 20.0)
           (-70.0 70.0)
           (-70.0 60.0)
  end
  begin
     id 8 
     name rtibia
     direction -0.34202 -0.939693 0   
     length 7.71512   
     axis 0 0 -20   XYZ
    dof rx
    limits (-10.0 170.0)
 end
 begin
     id 9 
     name rfoot
     direction -0.0822618 -0.226012 0.970645   
     length 1.90014  
     axis -90 -7.62852e-016 -20   XYZ
    dof rx rz
    limits (-45.0 90.0)
           (-20.0 70.0)
  end
  begin
     id 10 
     name rtoes
     direction -1.53542e-011 -4.21872e-011 1   
     length 0.957341   
     axis -90 -7.62852e-016 -20   XYZ
    dof rx
    limits (-90.0 20.0)
  end
  begin
     id 11 
     name lowerback
     direction -0.0022947 0.999774 -0.0211557   
     length 1.89909   
     axis 0 0 0   XYZ
    dof rx ry rz
    limits (-20.0 45.0)
           (-30.0 30.0)
           (-30.0 30.0)
  end
  begin
     id 12 
     name upperback
     direction 0.0107737 0.998635 0.0511027   
     length 1.8853   
     axis 0 0 0   XYZ
    dof rx ry rz
    limits (-20.0 45.0)
           (-30.0 30.0)
           (-30.0 30.0)
  end
  begin
     id 13 
     name thorax
     direction 0.011824 0.998136 0.0598754   
     length 1.88911   
     axis 0 0 0   XYZ
    dof rx ry rz
    limits (-20.0 45.0)
           (-30.0 30.0)
           (-30.0 30.0)
  end
  begin
     id 14 
     name lowerneck
     direction -0.0685355 0.990319 0.120714   
     length 1.91222   
     axis 0 0 0   XYZ
    dof rx ry rz
    limits (-20.0 45.0)
           (-30.0 30.0)
           (-30.0 30.0)
  end
  begin
     id 15 
     name upperneck
     direction 0.0886204 0.955665 -0.280805   
     length 1.92526   
     axis 0 0 0   XYZ
    dof rx ry rz
    limits (-20.0 45.0)
           (-30.0 30.0)
           (-30.0 30.0)
  end
  begin
     id 16
     name head
     direction 0.0233423 0.993502 -0.111393  
     length 1.96056  
     axis 0 0 0   XYZ
    dof rx ry rz
    limits (-20.0 45.0)
           (-30.0 30.0)
           (-30.0 30.0)
  end
  begin
     id 17 
     name lclavicle
     direction 0.941873 0.32922 0.0670041  
     length 3.31705  
     axis 0 0 0   XYZ
    dof ry rz
    limits (-20.0 10.0)
           (0.0 20.0)
  end
  begin
     id 18 
     name lhumerus
     direction 1 -4.4898e-011 3.38707e-028   
     length 5.29277   
     axis 180 -30 -90   XYZ
    dof rx ry rz
    limits (-60.0 90.0)
           (-90.0 90.0)
           (-90.0 90.0)
  end
  begin
     id 19
     name lradius
     direction 1 -4.48952e-011 1.63213e-028   
     length 2.85226   
     axis 180 -30 -90   XYZ
    dof rx
    limits (-10.0 170.0)
  end
  begin
     id 20
     name lwrist
     direction 1 -4.49001e-011 1.27856e-027   
     length 1.42613   
     axis -1.61767e-015 90 90   XYZ
    dof ry
    limits (-180.0 0.0)
 end
  begin
     id 21 
     name lhand
     direction 1 -4.48976e-011 2.55931e-027   
     length 0.602097   
     axis -1.63363e-015 90 90   XYZ
    dof rx rz
    limits (-90.0 90.0)
           (-45.0 45.0)
  end
  begin
     id 22 
     name lfingers
     direction 1 -4.48986e-011 5.11684e-027   
     length 0.485426   
     axis -3.26723e-015 90 90   XYZ
    dof rx
    limits (0.0 90.0)
  end
  begin
     id 23
     name lthumb
     direction 0.707107 -6.34915e-011 0.707107   
     length 0.696978   
     axis -90 45 -2.25915e-014   XYZ
    dof rx rz
    limits (-45.0 45.0)
           (-45.0 45.0)
  end
  begin
     id 24 
     name rclavicle
     direction -0.939974 0.327078 0.0973096   
     length 3.10337  
     axis 0 0 0   XYZ 
    dof ry rz
    limits (-10.0 20.0)
           (-20.0 0.0)
  end
  begin
     id 25 
     name rhumerus
     direction -1 -4.48975e-011 1.83745e-027  
     length 5.13304   
     axis 180 30 90   XYZ
    dof rx ry rz
    limits (-90.0 60.0)
           (-90.0 90.0)
           (-90.0 90.0)
  end
  begin
     id 26 
     name rradius
     direction -1 -4.48977e-011 7.1775e-029   
     length 2.74305   
     axis 180 30 90   XYZ
    dof rx
    limits (-10.0 170.0)
  end
  begin
     id 27 
     name rwrist
     direction -1 -4.48977e-011 1.27963e-027   
     length 1.37152   
     axis -1.61767e-015 -90 -90   XYZ
    dof ry
    limits (-180.0 0.0)
  end
  begin
     id 28
     name rhand
     direction -1 -4.4888e-011 2.56782e-027   
     length 0.767976   
     axis -1.63363e-015 -90 -90   XYZ
    dof rx rz
    limits (-90.0 90.0)
           (-45.0 45.0)
  end
  begin
     id 29
     name rfingers
     direction -1 -4.48947e-011 5.12384e-027   
     length 0.619162   
     axis -3.26723e-015 -90 -90   XYZ
    dof rx
    limits (0.0 90.0)
  end
  begin
     id 30
     name rthumb
     direction -0.707107 -6.34857e-011 0.707107   
     length 0.888997   
     axis -90 -45 2.25915e-014   XYZ
    dof rx rz
    limits (-45.0 45.0)
           (-45.0 45.0)
  end
:hierarchy
  begin
    root lhipjoint rhipjoint lowerback
    lhipjoint lfemur
    lfemur ltibia
    ltibia lfoot
    lfoot ltoes
    rhipjoint rfemur
    rfemur rtibia
    rtibia rfoot
    rfoot rtoes
    lowerback upperback
    upperback thorax
    thorax lowerneck lclavicle rclavicle
    lowerneck upperneck
    upperneck head
    lclavicle lhumerus
    lhumerus lradius
    lradius lwrist
    lwrist lhand lthumb
    lhand lfingers
    rclavicle rhumerus
    rhumerus rradius
    rradius rwrist
    rwrist rhand rthumb
    rhand rfingers
  end

#!OML:ASF F:\VICON\USERDATA\INSTALL\rory3\rory3.ASF
:FULLY-SPECIFIED
:DEGREES
256
root 0.216967 17.1827 -0.332956 -4.74758 10.4547 -4.99186
lowerback 1.3518 6.23243 -2.8251
upperback 1.58808 8.34717 6.49989
thorax -0.491637 4.20665 8.12345
lowerneck 0.0349878 -17.9685 -18.1046
upperneck 12.6358 -27.6342 23.3625
head 9.9952 -12.971 7.20751
rclavicle 2.91344e-014 -1.11319e-014
rhumerus 23.1046 13.5707 -113.827
rradius 112.656
rwrist -20.9638
rhand -53.4138 9.97252
rfingers 7.12502
rthumb -25.8621 -18.2889
lclavicle 2.91344e-014 -1.11319e-014
lhumerus 86.4279 -16.6978 1.77388
lradius 81.847
lwrist 56.8582
lhand 0.100139 38.6298
lfingers 7.12502
lthumb 25.6863 66.9168
rfemur 6.669 4.49572 24.3564
rtibia 10.9333
rfoot -12.3986 -13.5773
rtoes -24.3358
lfemur -5.78209 -20.1483 -15.1583
ltibia 29.3029
lfoot -18.3326 5.50469
ltoes -20.0603
257
root 0.237712 17.1722 -0.347124 -4.8848 10.5875 -4.81713
lowerback 1.53776 6.21163 -2.8094
upperback 1.63705 8.3191 6.57177
thorax -0.548625 4.19356 8.17377
lowerneck 0.106937 -18.0405 -18.0542
upperneck 12.6635 -27.6901 23.0943
head 9.94592 -13.0112 7.10293
rclavicle 6.42571e-014 1.03368e-014
rhumerus 23.4246 13.058 -113.864
rradius 112.555
rwrist -21.7819
rhand -53.8167 9.62387
rfingers 7.12502
rthumb -26.2479 -18.5807
lclavicle 6.42571e-014 1.03368e-014
lhumerus 87.0882 -16.3034 0.774284
lradius 81.2106
lwrist 57.1842
lhand 0.408804 38.741
lfingers 7.12502
lthumb 25.9819 66.9849
rfemur 6.53928 4.37896 24.0693
rtibia 11.5791
rfoot -13.0656 -13.5912
rtoes -23.4408
lfemur -5.78495 -20.1163 -15.4793
ltibia 29.5212
lfoot -18.3225 5.38906
ltoes -20.1094
258
root 0.259834 17.161 -0.360046 -5.0442 10.7265 -4.72582
lowerback 1.62787 6.00735 -2.86499
upperback 1.88579 8.04151 6.92791
thorax -0.354649 4.04557 8.61031
lowerneck -0.430289 -18.0286 -18.5215
upperneck 12.9227 -27.5707 22.7564
head 10.1154 -12.9401 7.0191
rclavicle 1.7257e-014 -4.77083e-015
rhumerus 23.5825 13.365 -113.614
rradius 112.514
rwrist -22.53
rhand -54.3773 9.8396
rfingers 7.12502
rthumb -26.7844 -18.284
lclavicle 1.7257e-014 -4.77083e-015
lhumerus 87.0941 -15.7284 0.172422
lradius 80.4364
lwrist 57.4359
lhand 0.945613 38.8426
lfingers 7.12502
lthumb 26.4958 67.0101
rfemur 6.38417 4.25663 23.8658
rtibia 12.25
rfoot -13.6133 -13.6499
rtoes -22.7326
lfemur -5.75894 -20.1315 -15.7203
ltibia 29.7263
lfoot -18.3314 5.2847
ltoes -20.1457
259
root 0.282472 17.1536 -0.373565 -5.16632 10.8304 -4.71843
lowerback 1.77296 5.9224 -2.80912
upperback 1.96963 7.93107 7.24673
thorax -0.36806 3.99187 8.91779
lowerneck -0.565782 -18.055 -18.8779
upperneck 13.0277 -27.5228 22.4267
head 10.1586 -12.9353 6.94628
rclavicle -5.66536e-015 -3.18055e-015
rhumerus 23.6481 13.3365 -113.365
rradius 112.424
rwrist -23.1949
rhand -54.4114 10.9337
rfingers 7.12502
rthumb -26.817 -17.1848
lclavicle -5.66536e-015 -3.18055e-015
lhumerus 87.4899 -15.4721 -0.411643
lradius 79.6997
lwrist 57.7188
lhand 1.2678 38.8586
lfingers 7.12502
lthumb 26.8041 66.9791
rfemur 6.15553 4.15472 23.7532
rtibia 12.8793
rfoot -13.7674 -13.7648
rtoes -23.2981
lfemur -5.79506 -20.1504 -15.8537
ltibia 29.9412
lfoot -18.3249 5.21026
ltoes -20.1831
260
root 0.305112 17.1469 -0.387432 -5.2585 10.9484 -4.67545
lowerback 1.95402 5.95672 -2.81108
upperback 1.90401 7.9867 7.47012
thorax -0.580163 4.0314 9.13104
lowerneck -0.336216 -18.1595 -18.9674
upperneck 13.075 -27.6275 22.0746
head 10.1049 -13.0193 6.83352
rclavicle -1.05629e-013 1.59028e-015
rhumerus 23.6679 12.7001 -113.187
rradius 112.385
rwrist -23.9812
rhand -54.1637 11.4851
rfingers 7.12502
rthumb -26.58 -16.6696
lclavicle -1.05629e-013 1.59028e-015
lhumerus 88.2854 -15.377 -1.10133
lradius 79.0769
lwrist 57.9887
lhand 1.69568 38.7462
lfingers 7.12502
lthumb 27.2135 66.8033
rfemur 5.90272 4.0442 23.5991
rtibia 13.4439
rfoot -13.6805 -13.8957
rtoes -24.6451
lfemur -5.87888 -20.12 -16.0041
ltibia 30.1663
lfoot -18.3803 5.03627
ltoes -19.9319
261
root 0.326892 17.1408 -0.404064 -5.31129 11.0223 -4.64782
lowerback 2.08124 5.93593 -2.74004
upperback 1.9028 7.96491 7.65756
thorax -0.666335 4.02563 9.28062
lowerneck -0.306085 -18.2171 -19.0446
upperneck 13.1787 -27.667 21.7946
head 10.1044 -13.0522 6.7412
rclavicle -1.30999e-013 -1.90833e-014
rhumerus 23.7774 12.0928 -113.123
rradius 112.406
rwrist -24.909
rhand -54.3423 10.3683
rfingers 7.12502
rthumb -26.7509 -17.7604
lclavicle -1.30999e-013 -1.90833e-014
lhumerus 88.8769 -15.0564 -1.92134
lradius 78.533
lwrist 58.4199
lhand 1.93701 38.5139
lfingers 7.12502
lthumb 27.4444 66.5346
rfemur 5.62041 3.97792 23.476
rtibia 14.0145
rfoot -13.8558 -13.9639
rtoes -25.0937
lfemur -6.03078 -19.9719 -16.0984
ltibia 30.4045
lfoot -18.4313 4.85745
ltoes -20.1346
262
root 0.347775 17.1317 -0.421813 -5.38317 11.1423 -4.57389
lowerback 2.13064 5.85379 -2.60583
upperback 2.01588 7.85322 7.78938
thorax -0.556797 3.96421 9.35742
lowerneck -0.376988 -18.2332 -19.063
upperneck 13.1811 -27.6304 21.5964
head 10.0756 -13.0407 6.67743
rclavicle 3.46134e-014 3.18055e-014
rhumerus 24.1 11.5862 -113.093
rradius 112.404
rwrist -25.9457
rhand -54.6612 8.62263
rfingers 7.12502
rthumb -27.0561 -19.4591
lclavicle 3.46134e-014 3.18055e-014
lhumerus 89.3519 -14.621 -2.76061
lradius 78.0172
lwrist 58.9122
lhand 1.65004 38.4007
lfingers 7.12502
lthumb 27.1699 66.4647
rfemur 5.41964 3.86982 23.291
rtibia 14.6187
rfoot -14.4793 -13.938
rtoes -23.9194
lfemur -6.16237 -19.8236 -16.2431
ltibia 30.6376
lfoot -18.4692 4.60781
ltoes -20.0781
263
root 0.370433 17.1189 -0.436806 -5.46801 11.3594 -4.40765
lowerback 2.16805 5.76878 -2.46887
upperback 2.10136 7.73664 7.83098
thorax -0.455263 3.90015 9.33414
lowerneck -0.289605 -18.2492 -19.0966
upperneck 13.1187 -27.6293 21.5168
head 10.028 -13.0542 6.66272
rclavicle -1.15444e-013 -2.54444e-014
rhumerus 24.4471 11.0931 -113.088
rradius 112.28
rwrist -26.6623
rhand -54.9851 7.70667
rfingers 7.12502
rthumb -27.3659 -20.3265
lclavicle -1.15444e-013 -2.54444e-014
lhumerus 90.0574 -14.2114 -3.73057
lradius 77.3429
lwrist 59.3865
lhand 1.35743 38.4497
lfingers 7.12502
lthumb 26.8899 66.557
rfemur 5.22749 3.6746 22.986
rtibia 15.2292
rfoot -14.8955 -14.004
rtoes -23.384
lfemur -6.24837 -19.8119 -16.5318
ltibia 30.8597
lfoot -18.4616 4.34496
ltoes -19.4281
264
root 0.394778 17.1092 -0.451988 -5.57893 11.5148 -4.32845
lowerback 2.3022 5.68228 -2.29426
upperback 2.12283 7.62507 7.94723
thorax -0.481338 3.84529 9.35506
lowerneck -0.155337 -18.2508 -19.0868
upperneck 13.0963 -27.5829 21.2552
head 9.93585 -13.057 6.59816
rclavicle -8.57259e-015 -5.24792e-014
rhumerus 24.6112 10.6208 -113.069
rradius 112.199
rwrist -27.4526
rhand -55.4473 8.17976
rfingers 7.12502
rthumb -27.8079 -19.7828
lclavicle -8.57259e-015 -5.24792e-014
lhumerus 90.6936 -13.8826 -4.68763
lradius 76.7632
lwrist 60.0694
lhand 1.00514 38.5859
lfingers 7.12502
lthumb 26.5528 66.7447
rfemur 4.99638 3.50571 22.7699
rtibia 15.8807
rfoot -15.2424 -13.9882
rtoes -23.1923
lfemur -6.3173 -19.714 -16.7162
ltibia 31.0496
lfoot -18.4252 4.02824
ltoes -18.7776
265
root 0.419945 17.1025 -0.465327 -5.67884 11.6362 -4.23804
lowerback 2.41927 5.57855 -2.25678
upperback 2.13194 7.49201 8.15251
thorax -0.53666 3.78186 9.55504
lowerneck 0.00223435 -18.2302 -19.2058
upperneck 13.1251 -27.5036 20.9438
head 9.86143 -13.0526 6.54242
rclavicle 1.38006e-013 8.90555e-014
rhumerus 24.6577 10.2613 -113.035
rradius 112.033
rwrist -27.9507
rhand -55.5076 8.65547
rfingers 7.12502
rthumb -27.8656 -19.2977
lclavicle 1.38006e-013 8.90555e-014
lhumerus 91.0191 -13.8026 -5.22996
lradius 76.2807
lwrist 60.3709
lhand 0.93797 38.5435
lfingers 7.12502
lthumb 26.4885 66.712
rfemur 4.8222 3.36208 22.551
rtibia 16.4743
rfoot -15.6629 -13.9853
rtoes -22.7879
lfemur -6.35876 -19.6386 -16.9268
ltibia 31.2239
lfoot -18.4421 3.74336
ltoes -17.9332
266
root 0.444057 17.0957 -0.479184 -5.80825 11.7661 -4.04962
lowerback 2.58319 5.50505 -2.32493
upperback 2.18483 7.39703 8.35164
thorax -0.591198 3.73642 9.80559
lowerneck 0.0791087 -18.2398 -19.3676
upperneck 13.1568 -27.4555 20.6275
head 9.81547 -13.0582 6.47407
rclavicle -1.47101e-013 -4.77083e-014
rhumerus 24.7593 9.96275 -112.896
rradius 111.753
rwrist -28.0309
rhand -55.2514 7.55447
rfingers 7.12502
rthumb -27.6206 -20.4382
lclavicle -1.47101e-013 -4.77083e-014
lhumerus 91.404 -13.748 -5.55949
lradius 75.5578
lwrist 60.3783
lhand 1.10437 38.5677
lfingers 7.12502
lthumb 26.6477 66.7121
rfemur 4.75936 3.25265 22.2353
rtibia 16.9656
rfoot -15.9393 -13.9834
rtoes -22.8891
lfemur -6.30768 -19.5788 -17.2805
ltibia 31.3775
lfoot -18.4386 3.6358
ltoes -18.0159
